<?xml version="1.0" encoding="UTF-8"?>
<svg xmlns="http://www.w3.org/2000/svg" id="Layer_1" data-name="Layer 1" viewBox="0 0 24 24">
  <path d="m23.669,12.001l-2.88-7.919c-.671-1.843-2.439-3.082-4.4-3.082H7.611c-1.961,0-3.729,1.239-4.4,3.082L.331,12.001c-.22.603-.331,1.235-.331,1.879v1.619c0,1.391.822,2.585,2,3.149v1.851c0,1.378,1.121,2.5,2.5,2.5s2.5-1.122,2.5-2.5v-1.5h10v1.5c0,1.378,1.121,2.5,2.5,2.5s2.5-1.122,2.5-2.5v-1.851c1.178-.564,2-1.758,2-3.149v-1.619c0-.644-.111-1.276-.331-1.879ZM4.15,4.424c.527-1.45,1.919-2.424,3.461-2.424h8.777c1.542,0,2.934.974,3.461,2.424l1.664,4.576H2.486l1.664-4.576Zm1.85,16.076c0,.827-.673,1.5-1.5,1.5s-1.5-.673-1.5-1.5v-1.551c.165.024.329.051.5.051h2.5v1.5Zm9-2.5h-6v-1c0-.551.448-1,1-1h4c.552,0,1,.449,1,1v1Zm6,2.5c0,.827-.673,1.5-1.5,1.5s-1.5-.673-1.5-1.5v-1.5h2.5c.171,0,.335-.027.5-.051v1.551Zm2-5c0,1.378-1.121,2.5-2.5,2.5h-4.5v-1c0-1.103-.897-2-2-2h-4c-1.103,0-2,.897-2,2v1H3.5c-1.379,0-2.5-1.122-2.5-2.5v-1.619c0-.298.037-.591.095-.881h2.405c.276,0,.5-.224.5-.5s-.224-.5-.5-.5H1.395l.727-2h19.755l.727,2h-2.105c-.276,0-.5.224-.5.5s.224.5.5.5h2.405c.058.289.095.583.095.881v1.619Z"/>
</svg>
