<?xml version="1.0" encoding="UTF-8"?>
<svg xmlns="http://www.w3.org/2000/svg" id="Outline" viewBox="0 0 24 24">
  <path d="m24,9.5L21.901,0H2.099L0,9.5c0,.98.407,1.864,1.058,2.5h-.058v9.5c0,1.379,1.122,2.5,2.5,2.5h17c1.378,0,2.5-1.121,2.5-2.5v-9.5h-.058c.651-.636,1.058-1.52,1.058-2.5Zm-23,.053L2.901,1h4.099v5h1V1h8v5h1V1h4.099l1.9,8.553c-.028,1.354-1.139,2.447-2.5,2.447h-1c-1.378,0-2.5-1.121-2.5-2.5v-.5h-1v.5c0,1.379-1.122,2.5-2.5,2.5h-3c-1.378,0-2.5-1.121-2.5-2.5v-.5h-1v.5c0,1.379-1.122,2.5-2.5,2.5h-1c-1.361,0-2.472-1.093-2.5-2.447Zm21,11.947c0,.827-.673,1.5-1.5,1.5H3.5c-.827,0-1.5-.673-1.5-1.5v-8.851c.456.219.961.351,1.5.351h1c1.28,0,2.39-.698,3-1.726.61,1.028,1.72,1.726,3,1.726h3c1.28,0,2.39-.698,3-1.726.61,1.028,1.72,1.726,3,1.726h1c.539,0,1.044-.133,1.5-.351v8.851Z"/>
</svg>
