<?xml version="1.0" encoding="UTF-8"?>
<svg xmlns="http://www.w3.org/2000/svg" id="Outline" viewBox="0 0 24 24">
  <path d="m23.918,4H4.49l-.256-1.843c-.17-1.229-1.234-2.157-2.476-2.157H0v1h1.759c.745,0,1.383.556,1.485,1.294l2.021,14.549c.17,1.229,1.234,2.157,2.476,2.157h12.259v-1H7.741c-.745,0-1.383-.556-1.485-1.294l-.237-1.706h15.699l2.2-11ZM5.88,14l-1.25-9h18.068l-1.8,9H5.88Zm1.12,6c-1.103,0-2,.897-2,2s.897,2,2,2,2-.897,2-2-.897-2-2-2Zm0,3c-.552,0-1-.449-1-1s.448-1,1-1,1,.449,1,1-.448,1-1,1Zm10-3c-1.103,0-2,.897-2,2s.897,2,2,2,2-.897,2-2-.897-2-2-2Zm0,3c-.552,0-1-.449-1-1s.448-1,1-1,1,.449,1,1-.448,1-1,1Z"/>
</svg>
