<?xml version="1.0" encoding="iso-8859-1"?>
<!-- Generator: Adobe Illustrator 19.0.0, SVG Export Plug-In . SVG Version: 6.00 Build 0)  -->
<svg version="1.1" id="Layer_1" xmlns="http://www.w3.org/2000/svg" xmlns:xlink="http://www.w3.org/1999/xlink" x="0px" y="0px"
	 viewBox="0 0 512 512" style="enable-background:new 0 0 512 512;" xml:space="preserve">
<g>
	<g>
		<path d="M507.155,99.939l-215.742,211.04c-9.761,9.766-22.587,14.647-35.413,14.647c-12.826,0-25.652-4.881-35.413-14.647
			L6.705,96.518C2.567,104.294,0,113.027,0,122.435v267.13c0,9.394,2.56,18.116,6.688,25.886l115.747-115.603
			c6.521-6.521,17.087-6.521,23.609,0c6.521,6.516,6.521,17.092,0,23.609L30.454,438.903c7.601,3.902,16.083,6.314,25.198,6.314
			h400.696c9.115,0,17.597-2.412,25.198-6.314l-115.59-115.447c-6.521-6.516-6.521-17.092,0-23.609
			c6.521-6.521,17.087-6.521,23.609,0l115.747,115.604c4.128-7.77,6.688-16.492,6.688-25.886v-267.13
			C512,114.416,510.22,106.833,507.155,99.939z"/>
	</g>
</g>
<g>
	<g>
		<path d="M456.348,66.783H55.652c-9.102,0-17.574,2.405-25.168,6.298l213.712,214.29c6.511,6.511,17.097,6.511,23.609,0
			L484.956,74.95C476.567,69.876,466.846,66.783,456.348,66.783z"/>
	</g>
</g>
<g>
</g>
<g>
</g>
<g>
</g>
<g>
</g>
<g>
</g>
<g>
</g>
<g>
</g>
<g>
</g>
<g>
</g>
<g>
</g>
<g>
</g>
<g>
</g>
<g>
</g>
<g>
</g>
<g>
</g>
</svg>
