<svg id="Layer_1" viewBox="0 0 24 24" xmlns="http://www.w3.org/2000/svg" data-name="Layer 1"><path d="m14.738 1c.495 0 .975.145 1.387.42l2.502 1.667.555-.832-2.502-1.667c-.577-.385-1.248-.588-1.941-.588h-7.238c-1.379 0-2.5 1.122-2.5 2.5v2.611c-2.973 1.212-5.001 4.134-5.001 7.389v11.5h15v-11.5c0-3.255-2.028-6.177-5-7.389v-4.111zm-8.738 1.5c0-.827.673-1.5 1.5-1.5h1.5v4h-3zm8 10v10.5h-13v-10.5c0-2.879 1.814-5.461 4.461-6.5h4.078c2.647 1.039 4.461 3.621 4.461 6.5zm-6.5-1.696-2.121 2.075c-1.17 1.17-1.17 3.072 0 4.242.566.566 1.32.879 2.121.879s1.555-.312 2.121-.879c1.17-1.17 1.17-3.072-.004-4.246zm1.414 5.61c-.756.756-2.072.756-2.828 0-.779-.779-.779-2.049-.004-2.824l1.418-1.387 1.414 1.383c.779.779.779 2.049 0 2.828zm12.086-4.414c1.103 0 2-.897 2-2s-.897-2-2-2-2 .897-2 2 .897 2 2 2zm0-3c.552 0 1 .449 1 1s-.448 1-1 1-1-.449-1-1 .448-1 1-1zm.562 8.182c.119-.295.188-.611.188-.932 0-1.379-1.121-2.5-2.5-2.5s-2.5 1.121-2.5 2.5c0 .828.406 1.576 1.061 2.037-.499.605-.811 1.369-.811 2.213 0 1.93 1.57 3.5 3.5 3.5s3.5-1.57 3.5-3.5c0-1.557-1.029-2.865-2.438-3.318zm-2.312-2.432c.827 0 1.5.673 1.5 1.5 0 .269-.091.523-.226.752-.008 0-.016-.002-.024-.002-.708 0-1.366.215-1.918.578-.504-.254-.832-.756-.832-1.328 0-.827.673-1.5 1.5-1.5zm1.25 8.25c-1.379 0-2.5-1.121-2.5-2.5s1.121-2.5 2.5-2.5 2.5 1.121 2.5 2.5-1.121 2.5-2.5 2.5z"/></svg>