<?xml version="1.0" encoding="UTF-8"?>
<svg xmlns="http://www.w3.org/2000/svg" id="Layer_1" data-name="Layer 1" viewBox="0 0 24 24">
  <path d="m22,9.05v-2.55c0-3.033-2.467-5.5-5.5-5.5H7.5c-3.033,0-5.5,2.467-5.5,5.5v2.55c-1.14.232-2,1.242-2,2.45v5c0,1.557.795,2.932,2,3.74v2.26c0,.276.224.5.5.5s.5-.224.5-.5v-1.757c.469.166.974.257,1.5.257h15c.526,0,1.031-.091,1.5-.257v1.757c0,.276.224.5.5.5s.5-.224.5-.5v-2.26c1.205-.808,2-2.183,2-3.74v-5c0-1.207-.86-2.217-2-2.45ZM7.5,2h9c2.481,0,4.5,2.019,4.5,4.5v2.55c-1.14.232-2,1.242-2,2.45v3.5H5v-3.5c0-1.207-.86-2.217-2-2.45v-2.55c0-2.481,2.019-4.5,4.5-4.5Zm15.5,14.5c0,1.93-1.57,3.5-3.5,3.5H4.5c-1.93,0-3.5-1.57-3.5-3.5v-5c0-.827.673-1.5,1.5-1.5s1.5.673,1.5,1.5v4c0,.276.224.5.5.5h15c.276,0,.5-.224.5-.5v-4c0-.827.673-1.5,1.5-1.5s1.5.673,1.5,1.5v5Z"/>
</svg>
