<?xml version="1.0" encoding="UTF-8"?>
<svg xmlns="http://www.w3.org/2000/svg" id="Layer_1" data-name="Layer 1" viewBox="0 0 24 24">
  <path d="m21.079,1.136c-1.403-.753-2.879-1.136-4.388-1.136H7.31c-1.509,0-2.985.382-4.388,1.136C1.12,2.104,0,4.02,0,6.136v1.388c0,1.93,1.57,3.5,3.5,3.5h.5v8.476c0,2.481,2.019,4.5,4.5,4.5h7c2.481,0,4.5-2.019,4.5-4.5v-8.5h.5c1.93,0,3.5-1.57,3.5-3.5v-1.364c0-2.116-1.12-4.032-2.921-5Zm-5.615-.136c-.243,1.694-1.704,3-3.464,3s-3.221-1.306-3.464-3h6.928Zm7.536,6.5c0,1.378-1.122,2.5-2.5,2.5h-.5v-3c0-.276-.224-.5-.5-.5s-.5.224-.5.5v12.5c0,1.93-1.57,3.5-3.5,3.5h-7c-1.93,0-3.5-1.57-3.5-3.5V7c0-.276-.224-.5-.5-.5s-.5.224-.5.5v3.024h-.5c-1.378,0-2.5-1.122-2.5-2.5v-1.388c0-1.748.917-3.326,2.395-4.119,1.256-.674,2.573-1.017,3.915-1.017h.218c.25,2.247,2.16,4,4.472,4s4.223-1.753,4.472-4h.218c1.342,0,2.659.342,3.915,1.017,1.477.793,2.395,2.372,2.395,4.119v1.364Z"/>
</svg>
