<?xml version="1.0" encoding="UTF-8"?>
<svg xmlns="http://www.w3.org/2000/svg" id="Layer_1" data-name="Layer 1" viewBox="0 0 24 24">
  <path d="M4.5,17.5H2c-1.103,0-2,.897-2,2v2.5c0,1.103,.897,2,2,2h2.5c1.103,0,2-.897,2-2v-2.5c0-1.103-.897-2-2-2Zm1,4.5c0,.552-.449,1-1,1H2c-.551,0-1-.448-1-1v-2.5c0-.552,.449-1,1-1h2.5c.551,0,1,.448,1,1v2.5Zm16.5-4.5h-2.5c-1.103,0-2,.897-2,2v2.5c0,1.103,.897,2,2,2h2.5c1.103,0,2-.897,2-2v-2.5c0-1.103-.897-2-2-2Zm1,4.5c0,.552-.449,1-1,1h-2.5c-.551,0-1-.448-1-1v-2.5c0-.552,.449-1,1-1h2.5c.551,0,1,.448,1,1v2.5ZM4.5,8.75H2c-1.103,0-2,.897-2,2v2.5c0,1.103,.897,2,2,2h2.5c1.103,0,2-.897,2-2v-2.5c0-1.103-.897-2-2-2Zm1,4.5c0,.552-.449,1-1,1H2c-.551,0-1-.448-1-1v-2.5c0-.552,.449-1,1-1h2.5c.551,0,1,.448,1,1v2.5Zm16.5-4.5h-2.5c-1.103,0-2,.897-2,2v2.5c0,1.103,.897,2,2,2h2.5c1.103,0,2-.897,2-2v-2.5c0-1.103-.897-2-2-2Zm1,4.5c0,.552-.449,1-1,1h-2.5c-.551,0-1-.448-1-1v-2.5c0-.552,.449-1,1-1h2.5c.551,0,1,.448,1,1v2.5ZM4.5,0H2C.897,0,0,.897,0,2v2.5c0,1.103,.897,2,2,2h2.5c1.103,0,2-.897,2-2V2c0-1.103-.897-2-2-2Zm1,4.5c0,.552-.449,1-1,1H2c-.551,0-1-.448-1-1V2c0-.552,.449-1,1-1h2.5c.551,0,1,.448,1,1v2.5Zm7.75,13h-2.5c-1.103,0-2,.897-2,2v2.5c0,1.103,.897,2,2,2h2.5c1.103,0,2-.897,2-2v-2.5c0-1.103-.897-2-2-2Zm1,4.5c0,.552-.449,1-1,1h-2.5c-.551,0-1-.448-1-1v-2.5c0-.552,.449-1,1-1h2.5c.551,0,1,.448,1,1v2.5Zm-1-13.25h-2.5c-1.103,0-2,.897-2,2v2.5c0,1.103,.897,2,2,2h2.5c1.103,0,2-.897,2-2v-2.5c0-1.103-.897-2-2-2Zm1,4.5c0,.552-.449,1-1,1h-2.5c-.551,0-1-.448-1-1v-2.5c0-.552,.449-1,1-1h2.5c.551,0,1,.448,1,1v2.5ZM13.25,0h-2.5c-1.103,0-2,.897-2,2v2.5c0,1.103,.897,2,2,2h2.5c1.103,0,2-.897,2-2V2c0-1.103-.897-2-2-2Zm1,4.5c0,.552-.449,1-1,1h-2.5c-.551,0-1-.448-1-1V2c0-.552,.449-1,1-1h2.5c.551,0,1,.448,1,1v2.5ZM22,0h-2.5c-1.103,0-2,.897-2,2v2.5c0,1.103,.897,2,2,2h2.5c1.103,0,2-.897,2-2V2c0-1.103-.897-2-2-2Zm1,4.5c0,.552-.449,1-1,1h-2.5c-.551,0-1-.448-1-1V2c0-.552,.449-1,1-1h2.5c.551,0,1,.448,1,1v2.5Z"/>
</svg>
